HIERARCHY
ROOT hip
{
  OFFSET 0 0 0
  CHANNELS 6 Xposition Yposition Zposition Zrotation Yrotation Xrotation
  JOINT abdomen
  {
    OFFSET 0 20.6881 -0.73152
    CHANNELS 3 Zrotation Xrotation Yrotation
    JOINT chest
    {
      OFFSET 0 11.7043 -0.48768
      CHANNELS 3 Zrotation Xrotation Yrotation
      JOINT neck
      {
        OFFSET 0 22.1894 -2.19456
        CHANNELS 3 Zrotation Xrotation Yrotation
        JOINT head
        {
          OFFSET -0.24384 7.07133 1.2192
          CHANNELS 3 Zrotation Xrotation Yrotation
          JOINT leftEye
          {
            OFFSET 4.14528 8.04674 8.04672
            CHANNELS 3 Zrotation Xrotation Yrotation
            End Site
            {
              OFFSET 1 0 0
            }
          }
          JOINT rightEye
          {
            OFFSET -3.6576 8.04674 8.04672
            CHANNELS 3 Zrotation Xrotation Yrotation
            End Site
            {
              OFFSET 1 0 0
            }
          }
        }
      }
      JOINT rCollar
      {
        OFFSET -2.68224 19.2634 -4.8768
        CHANNELS 3 Zrotation Xrotation Yrotation
        JOINT rShldr
        {
          OFFSET -8.77824 -1.95073 1.46304
          CHANNELS 3 Zrotation Xrotation Yrotation
          JOINT rForeArm
          {
            OFFSET -28.1742 -1.7115 0.48768
            CHANNELS 3 Zrotation Xrotation Yrotation
            JOINT rHand
            {
              OFFSET -22.5879 0.773209 7.07136
              CHANNELS 3 Zrotation Xrotation Yrotation
              JOINT rThumb1
              {
                OFFSET -1.2192 -0.487915 3.41376
                CHANNELS 3 Zrotation Xrotation Yrotation
                JOINT rThumb2
                {
                  OFFSET -3.37035 -0.52449 3.41376
                  CHANNELS 3 Zrotation Xrotation Yrotation
                  End Site
                  {
                    OFFSET -1.78271 -1.18214 1.43049
                  }
                }
              }
              JOINT rIndex1
              {
                OFFSET -7.75947 0.938293 5.60832
                CHANNELS 3 Zrotation Xrotation Yrotation
                JOINT rIndex2
                {
                  OFFSET -2.54057 -0.884171 1.56538
                  CHANNELS 3 Zrotation Xrotation Yrotation
                  End Site
                  {
                    OFFSET -1.62519 -0.234802 1.16502
                  }
                }
              }
              JOINT rMid1
              {
                OFFSET -8.24714 1.18213 3.41376
                CHANNELS 3 Zrotation Xrotation Yrotation
                JOINT rMid2
                {
                  OFFSET -3.10165 -0.590103 1.0647
                  CHANNELS 3 Zrotation Xrotation Yrotation
                  End Site
                  {
                    OFFSET -2.48547 -0.328903 0.83742
                  }
                }
              }
              JOINT rRing1
              {
                OFFSET -8.82822 0.546677 1.51678
                CHANNELS 3 Zrotation Xrotation Yrotation
                JOINT rRing2
                {
                  OFFSET -2.60934 -0.819778 -0.0198488
                  CHANNELS 3 Zrotation Xrotation Yrotation
                  End Site
                  {
                    OFFSET -2.33842 -0.294052 0.168128
                  }
                }
              }
              JOINT rPinky1
              {
                OFFSET -8.27202 -0.0477905 -0.4584
                CHANNELS 3 Zrotation Xrotation Yrotation
                JOINT rPinky2
                {
                  OFFSET -1.82734 -0.647385 -0.700984
                  CHANNELS 3 Zrotation Xrotation Yrotation
                  End Site
                  {
                    OFFSET -1.69225 -0.51767 -0.607171
                  }
                }
              }
            }
          }
        }
      }
      JOINT lCollar
      {
        OFFSET 2.68224 19.2634 -4.8768
        CHANNELS 3 Zrotation Xrotation Yrotation
        JOINT lShldr
        {
          OFFSET 8.77824 -1.95073 1.46304
          CHANNELS 3 Zrotation Xrotation Yrotation
          JOINT lForeArm
          {
            OFFSET 28.1742 -1.7115 0.48768
            CHANNELS 3 Zrotation Xrotation Yrotation
            JOINT lHand
            {
              OFFSET 22.5879 0.773209 7.07136
              CHANNELS 3 Zrotation Xrotation Yrotation
              JOINT lThumb1
              {
                OFFSET 1.2192 -0.487915 3.41376
                CHANNELS 3 Zrotation Xrotation Yrotation
                JOINT lThumb2
                {
                  OFFSET 3.37035 -0.52449 3.41376
                  CHANNELS 3 Zrotation Xrotation Yrotation
                  End Site
                  {
                    OFFSET 1.78271 -1.18214 1.43049
                  }
                }
              }
              JOINT lIndex1
              {
                OFFSET 7.75947 0.938293 5.60832
                CHANNELS 3 Zrotation Xrotation Yrotation
                JOINT lIndex2
                {
                  OFFSET 2.54057 -0.884171 1.56538
                  CHANNELS 3 Zrotation Xrotation Yrotation
                  End Site
                  {
                    OFFSET 1.62519 -0.234802 1.16502
                  }
                }
              }
              JOINT lMid1
              {
                OFFSET 8.24714 1.18213 3.41376
                CHANNELS 3 Zrotation Xrotation Yrotation
                JOINT lMid2
                {
                  OFFSET 3.10165 -0.590103 1.0647
                  CHANNELS 3 Zrotation Xrotation Yrotation
                  End Site
                  {
                    OFFSET 2.48547 -0.328903 0.83742
                  }
                }
              }
              JOINT lRing1
              {
                OFFSET 8.82822 0.546677 1.51678
                CHANNELS 3 Zrotation Xrotation Yrotation
                JOINT lRing2
                {
                  OFFSET 2.60934 -0.819778 -0.0198488
                  CHANNELS 3 Zrotation Xrotation Yrotation
                  End Site
                  {
                    OFFSET 2.33842 -0.294052 0.168128
                  }
                }
              }
              JOINT lPinky1
              {
                OFFSET 8.27202 -0.0477905 -0.4584
                CHANNELS 3 Zrotation Xrotation Yrotation
                JOINT lPinky2
                {
                  OFFSET 1.82734 -0.647385 -0.700984
                  CHANNELS 3 Zrotation Xrotation Yrotation
                  End Site
                  {
                    OFFSET 1.69225 -0.51767 -0.607171
                  }
                }
              }
            }
          }
        }
      }
    }
  }
  JOINT rButtock
  {
    OFFSET -8.77824 4.35084 1.2192
    CHANNELS 3 Zrotation Xrotation Yrotation
    JOINT rThigh
    {
      OFFSET 0 -1.70687 -2.19456
      CHANNELS 3 Zrotation Xrotation Yrotation
      JOINT rShin
      {
        OFFSET 0 -36.8199 0.73152
        CHANNELS 3 Zrotation Xrotation Yrotation
        JOINT rFoot
        {
          OFFSET 0.73152 -45.1104 -5.12064
          CHANNELS 3 Zrotation Xrotation Yrotation
          End Site
          {
            OFFSET -1.1221 -3.69964 12.103
          }
        }
      }
    }
  }
  JOINT lButtock
  {
    OFFSET 8.77824 4.35084 1.2192
    CHANNELS 3 Zrotation Xrotation Yrotation
    JOINT lThigh
    {
      OFFSET 0 -1.70687 -2.19456
      CHANNELS 3 Zrotation Xrotation Yrotation
      JOINT lShin
      {
        OFFSET 0 -36.8199 0.73152
        CHANNELS 3 Zrotation Xrotation Yrotation
        JOINT lFoot
        {
          OFFSET -0.73152 -45.1104 -5.12064
          CHANNELS 3 Zrotation Xrotation Yrotation
          End Site
          {
            OFFSET 1.1221 -3.69964 12.103
          }
        }
      }
    }
  }
}
MOTION
Frames:	8
Frame Time:	0.00833333
26.2406 75.2443 60.3738 3.4084 -82.8459 94.4288 0.874343 -35.241 25.4595 -17.3984 -3.62085 6.29426 25.7418 13.9187 -9.49813 -36.5025 -55.1988 -42.9909 -0.0 0.0 0.0 -0.0 0.0 0.0 6.11368e-14 1.97221e-13 1.58928e-13 17.6176 2.67108 17.9451 -24.2053 -19.4994 50.1415 -1.78186 -34.9942 -5.6466 3.17957e-09 -1.82987e-09 -3.34133e-09 5.57475e-09 -3.16732e-09 -5.68579e-09 3.17957e-09 -1.82987e-09 -3.34134e-09 7.73091 5.47488 0.417314 3.17957e-09 -1.82987e-09 -3.34133e-09 2.90554 0.965183 0.102902 3.17958e-09 -1.82986e-09 -3.34133e-09 10.2786 0.731801 0.0259123 3.17957e-09 -1.82986e-09 -3.34132e-09 2.22167 -0.733487 -0.20892 6.11201e-14 1.97167e-13 1.58733e-13 29.6347 -13.7473 -77.3626 26.3724 -24.408 -58.245 7.74408 -59.1052 13.6006 -7.03253e-10 -1.19893e-09 3.40068e-09 -1.36388e-09 -2.06268e-09 5.81564e-09 -7.03254e-10 -1.19891e-09 3.40069e-09 -7.73091 5.47488 -0.417314 -7.03251e-10 -1.19892e-09 3.40068e-09 -2.90554 0.965183 -0.102902 -7.03259e-10 -1.19892e-09 3.40068e-09 -10.2786 0.731801 -0.0259123 -7.03252e-10 -1.19892e-09 3.40067e-09 -2.22167 -0.733487 0.20892 -2.03217e-16 0.0 -3.88251e-19 14.3451 -64.3681 8.20456 -1.2006 60.9549 1.21687 -1.90168 32.4537 2.40682 2.03217e-16 0.0 3.88251e-19 21.043 -63.5365 33.1129 1.52237 65.0829 -1.77617 0.356417 27.6855 0.332931
26.0719 75.0597 60.4101 3.093 -82.8256 94.7532 0.781596 -35.7355 25.183 -17.3806 -3.96782 6.12678 26.5875 14.9675 -9.63401 -37.8414 -56.1039 -43.9586 -0.0 0.0 0.0 -0.0 0.0 0.0 -1.1024e-13 -9.1271e-14 1.46229e-13 19.9441 5.91228 18.6218 -24.7662 -20.6148 52.0397 -1.72323 -34.5015 -5.5436 1.28807e-09 -7.44905e-10 -1.1071e-09 2.25343e-09 -1.28532e-09 -1.87695e-09 1.28807e-09 -7.44906e-10 -1.10711e-09 7.73091 5.47488 0.417314 1.28807e-09 -7.44902e-10 -1.1071e-09 2.90554 0.965183 0.102902 1.28808e-09 -7.44898e-10 -1.1071e-09 10.2786 0.731801 0.0259123 1.28807e-09 -7.44896e-10 -1.10709e-09 2.22167 -0.733487 -0.20892 -1.10244e-13 -9.13129e-14 1.46036e-13 32.1602 -12.2543 -77.0892 26.7776 -25.6073 -60.1357 8.36094 -60.354 14.3144 -1.07163e-09 -8.1653e-10 1.12694e-09 -1.89386e-09 -1.36293e-09 1.88373e-09 -1.07163e-09 -8.16518e-10 1.12694e-09 -7.73091 5.47488 -0.417314 -1.07163e-09 -8.1652e-10 1.12693e-09 -2.90554 0.965183 -0.102902 -1.07163e-09 -8.16522e-10 1.12694e-09 -10.2786 0.731801 -0.0259123 -1.07163e-09 -8.16527e-10 1.12693e-09 -2.22167 -0.733487 0.20892 -2.03217e-16 0.0 -3.88251e-19 14.9046 -64.0327 8.90741 -1.06744 59.0414 1.08738 -1.76978 32.6072 2.15321 2.03217e-16 0.0 3.88251e-19 20.2358 -63.7442 31.7251 1.3705 63.3907 -1.6208 0.328419 27.7656 0.391196
25.9024 74.8676 60.4444 2.9701 -82.8003 94.8927 0.607599 -36.3254 24.9682 -17.2083 -4.25418 6.0022 27.5053 16.0238 -9.83999 -39.4967 -56.8869 -45.1934 -0.0 0.0 0.0 -0.0 0.0 0.0 -2.25835e-13 -2.95773e-13 1.30502e-13 22.1453 9.18182 18.986 -25.2212 -21.5789 53.7443 -1.65634 -33.9316 -5.42554 -1.43166e-10 9.01242e-11 3.05565e-10 -2.5272e-10 1.58404e-10 5.25341e-10 -1.43163e-10 9.01226e-11 3.05559e-10 7.73091 5.47488 0.417314 -1.43165e-10 9.01255e-11 3.05569e-10 2.90554 0.965183 0.102902 -1.43156e-10 9.01304e-11 3.05569e-10 10.2786 0.731801 0.0259123 -1.43168e-10 9.01325e-11 3.05575e-10 2.22167 -0.733487 -0.20892 -2.25819e-13 -2.9581e-13 1.30303e-13 34.7839 -11.1735 -77.4017 27.0685 -26.5691 -61.7876 9.25961 -62.0262 15.3438 -1.03781e-09 -2.20998e-10 -4.93994e-10 -1.76006e-09 -3.256e-10 -9.02725e-10 -1.03781e-09 -2.20987e-10 -4.93988e-10 -7.73091 5.47488 -0.417314 -1.03781e-09 -2.20989e-10 -4.93994e-10 -2.90554 0.965183 -0.102902 -1.03781e-09 -2.20991e-10 -4.93993e-10 -10.2786 0.731801 -0.0259123 -1.03781e-09 -2.20996e-10 -4.94001e-10 -2.22167 -0.733487 0.20892 -2.03217e-16 0.0 -3.88251e-19 15.3909 -63.6798 9.51613 -0.95043 57.1385 0.973791 -1.65222 32.7002 1.93035 2.03217e-16 0.0 3.88251e-19 19.4469 -63.9143 30.3773 1.24105 61.7433 -1.48539 0.269196 27.8121 0.531829
25.7354 74.6697 60.4731 2.9754 -82.7894 94.906 0.316949 -37.0904 24.8909 -16.7919 -4.4557 5.95197 28.5952 17.1739 -10.1863 -41.7592 -57.5471 -46.9613 -0.0 0.0 0.0 -0.0 0.0 0.0 -2.63985e-13 -3.87248e-13 1.06337e-13 24.2784 12.5508 18.8893 -25.6163 -22.4784 55.2527 -1.5697 -33.1779 -5.27126 -1.00016e-09 6.47401e-10 5.51018e-10 -1.73819e-09 1.112e-09 9.27296e-10 -1.00015e-09 6.47398e-10 5.51011e-10 7.73091 5.47488 0.417314 -1.00015e-09 6.474e-10 5.51019e-10 2.90554 0.965183 0.102902 -1.00015e-09 6.47405e-10 5.5102e-10 10.2786 0.731801 0.0259123 -1.00016e-09 6.47407e-10 5.51027e-10 2.22167 -0.733487 -0.20892 -2.63931e-13 -3.87291e-13 1.06115e-13 37.5971 -11.2678 -78.5504 27.2975 -27.3911 -63.1957 10.785 -64.4549 17.0597 -3.11303e-10 8.50228e-10 -1.24885e-09 -4.70244e-10 1.48273e-09 -2.16075e-09 -3.11304e-10 8.50239e-10 -1.24885e-09 -7.73091 5.47488 -0.417314 -3.11302e-10 8.50237e-10 -1.24885e-09 -2.90554 0.965183 -0.102902 -3.11307e-10 8.50235e-10 -1.24885e-09 -10.2786 0.731801 -0.0259123 -3.11304e-10 8.5023e-10 -1.24886e-09 -2.22167 -0.733487 0.20892 -2.03217e-16 0.0 -3.88251e-19 15.8029 -63.3171 10.0335 -0.84536 55.2145 0.872213 -1.54988 32.7071 1.73966 2.03217e-16 0.0 3.88251e-19 18.6614 -64.0661 29.0314 1.12835 60.1118 -1.36375 0.171017 27.8149 0.775531
25.57 74.4662 60.4992 3.1077 -82.776 94.7868 -0.0645593 -37.9967 24.914 -16.1939 -4.6052 5.95261 29.8472 18.4151 -10.6465 -44.5087 -58.0851 -49.14 -0.0 0.0 0.0 -0.0 0.0 0.0 -2.62161e-13 -4.1871e-13 7.58674e-14 26.4572 16.0843 18.4513 -25.9726 -23.3562 56.6244 -1.46818 -32.2456 -5.08484 -1.67382e-09 1.13052e-09 2.65082e-10 -2.89399e-09 1.93109e-09 4.16818e-10 -1.67382e-09 1.13052e-09 2.65076e-10 7.73091 5.47488 0.417314 -1.67382e-09 1.13052e-09 2.65081e-10 2.90554 0.965183 0.102902 -1.67382e-09 1.13052e-09 2.65083e-10 10.2786 0.731801 0.0259123 -1.67383e-09 1.13053e-09 2.6509e-10 2.22167 -0.733487 -0.20892 -2.62054e-13 -4.18769e-13 7.56096e-14 40.5573 -11.9705 -80.2966 27.4944 -28.1556 -64.3809 13.1572 -67.4015 19.6616 8.99749e-10 2.29607e-09 -1.68155e-09 1.64082e-09 3.90527e-09 -2.8381e-09 8.9975e-10 2.29608e-09 -1.68155e-09 -7.73091 5.47488 -0.417314 8.99751e-10 2.29608e-09 -1.68155e-09 -2.90554 0.965183 -0.102902 8.99742e-10 2.29608e-09 -1.68155e-09 -10.2786 0.731801 -0.0259123 8.99749e-10 2.29607e-09 -1.68156e-09 -2.22167 -0.733487 0.20892 -2.03217e-16 0.0 -3.88251e-19 16.1466 -62.9343 10.4717 -0.74933 53.25 0.779956 -1.46116 32.6501 1.57714 2.03217e-16 0.0 3.88251e-19 17.8499 -64.193 27.6436 1.02818 58.4649 -1.25216 0.0456818 27.8003 1.09125
25.4039 74.2599 60.5229 3.3753 -82.7655 94.5115 -0.470689 -38.8912 24.9045 -15.5658 -4.73225 5.95088 31.0612 19.5512 -11.0889 -47.1805 -58.4598 -51.2033 -0.0 0.0 0.0 -0.0 0.0 0.0 -2.40999e-13 -4.15734e-13 4.96682e-14 28.6969 19.6521 17.8968 -26.2536 -24.0993 57.7865 -1.37911 -31.3707 -4.91448 -2.12744e-09 1.44937e-09 -2.51398e-10 -3.66426e-09 2.46561e-09 -4.85979e-10 -2.12743e-09 1.44937e-09 -2.51404e-10 7.73091 5.47488 0.417314 -2.12743e-09 1.44937e-09 -2.51402e-10 2.90554 0.965183 0.102902 -2.12743e-09 1.44937e-09 -2.51399e-10 10.2786 0.731801 0.0259123 -2.12744e-09 1.44937e-09 -2.51391e-10 2.22167 -0.733487 -0.20892 -2.40849e-13 -4.15806e-13 4.93797e-14 43.5412 -11.7718 -81.858 27.6335 -28.7437 -65.2553 16.2377 -70.2315 22.9618 2.09784e-09 3.60159e-09 -1.86399e-09 3.71668e-09 6.08444e-09 -3.08564e-09 2.09784e-09 3.6016e-09 -1.86398e-09 -7.73091 5.47488 -0.417314 2.09784e-09 3.60159e-09 -1.86399e-09 -2.90554 0.965183 -0.102902 2.09783e-09 3.60159e-09 -1.86399e-09 -10.2786 0.731801 -0.0259123 2.09784e-09 3.60159e-09 -1.86399e-09 -2.22167 -0.733487 0.20892 -2.03217e-16 0.0 -3.88251e-19 16.4304 -62.5254 10.8254 -0.6646 51.3307 0.698445 -1.38856 32.5709 1.44435 2.03217e-16 0.0 3.88251e-19 17.0899 -64.2608 26.3537 0.943278 56.8915 -1.15418 -0.0975196 27.7701 1.45534
25.2335 74.0493 60.5404 3.7314 -82.7461 94.114 -0.845029 -39.6221 24.7189 -15.0599 -4.86651 5.8935 32.0194 20.3898 -11.3731 -49.1723 -58.6733 -52.598 -0.0 0.0 0.0 -0.0 0.0 0.0 -2.21137e-13 -4.03893e-13 3.83157e-14 30.9514 23.1056 17.4529 -26.435 -24.606 58.6512 -1.32341 -30.7893 -4.80378 -2.32426e-09 1.51384e-09 -6.97578e-10 -3.99308e-09 2.56552e-09 -1.26098e-09 -2.32425e-09 1.51383e-09 -6.97585e-10 7.73091 5.47488 0.417314 -2.32426e-09 1.51383e-09 -6.97585e-10 2.90554 0.965183 0.102902 -2.32426e-09 1.51384e-09 -6.97581e-10 10.2786 0.731801 0.0259123 -2.32426e-09 1.51384e-09 -6.97572e-10 2.22167 -0.733487 -0.20892 -2.20974e-13 -4.03966e-13 3.80176e-14 46.52 -9.63225 -82.4785 27.6971 -29.0379 -65.7154 19.3303 -72.3543 26.2199 2.78546e-09 4.25183e-09 -1.86805e-09 4.90088e-09 7.16263e-09 -3.0542e-09 2.78546e-09 4.25183e-09 -1.86805e-09 -7.73091 5.47488 -0.417314 2.78546e-09 4.25183e-09 -1.86805e-09 -2.90554 0.965183 -0.102902 2.78545e-09 4.25183e-09 -1.86805e-09 -10.2786 0.731801 -0.0259123 2.78546e-09 4.25183e-09 -1.86805e-09 -2.22167 -0.733487 0.20892 -2.03217e-16 0.0 -3.88251e-19 16.6635 -62.0846 11.0898 -0.592397 49.5423 0.628214 -1.33397 32.5107 1.34252 2.03217e-16 0.0 3.88251e-19 16.4654 -64.2405 25.3083 0.874732 55.4805 -1.07185 -0.249307 27.7265 1.84416
25.058 73.8404 60.5516 4.1628 -82.7204 93.5995 -1.25603 -40.247 24.3792 -14.616 -5.01739 5.79627 32.9387 21.0158 -11.535 -50.7975 -58.6777 -53.495 -0.0 0.0 0.0 -0.0 0.0 0.0 -2.05745e-13 -3.90584e-13 4.99031e-14 33.3098 26.3852 16.9715 -26.5312 -24.8839 59.1804 -1.30494 -30.5873 -4.76591 -2.14289e-09 1.15473e-09 -1.14017e-09 -3.66925e-09 1.93879e-09 -2.02017e-09 -2.14288e-09 1.15472e-09 -1.14017e-09 7.73091 5.47488 0.417314 -2.14288e-09 1.15472e-09 -1.14017e-09 2.90554 0.965183 0.102902 -2.14288e-09 1.15472e-09 -1.14017e-09 10.2786 0.731801 0.0259123 -2.14289e-09 1.15473e-09 -1.14016e-09 2.22167 -0.733487 -0.20892 -2.05617e-13 -3.90639e-13 4.96271e-14 49.3219 -4.73561 -83.8088 27.6565 -28.8532 -65.4237 21.5918 -73.6084 28.581 2.74337e-09 3.93368e-09 -1.58856e-09 4.80732e-09 6.6108e-09 -2.57396e-09 2.74337e-09 3.93369e-09 -1.58856e-09 -7.73091 5.47488 -0.417314 2.74337e-09 3.93369e-09 -1.58856e-09 -2.90554 0.965183 -0.102902 2.74336e-09 3.93369e-09 -1.58856e-09 -10.2786 0.731801 -0.0259123 2.74337e-09 3.93369e-09 -1.58857e-09 -2.22167 -0.733487 0.20892 -2.03217e-16 0.0 -3.88251e-19 16.864 -61.5977 11.2828 -0.528415 47.8356 0.565207 -1.29639 32.4536 1.26969 2.03217e-16 0.0 3.88251e-19 16.0072 -64.1312 24.5483 0.818275 54.2128 -1.0011 -0.414794 27.634 2.27559
